{
  "accessors": [
    {
      "bufferView": 2,
      "componentType": 5126,
      "count": 59772,
      "max": [
        0.44472944736480713,
        1.8062564134597778,
        0.5482692718505859
      ],
      "min": [
        -0.18158984184265137,
        0.6911815404891968,
        -0.48552384972572327
      ],
      "type": "VEC3"
    },
    {
      "bufferView": 2,
      "byteOffset": 717264,
      "componentType": 5126,
      "count": 59772,
      "max": [
        0.9999958872795105,
        0.9999986886978149,
        0.9999964833259583
      ],
      "min": [
        -0.9996445775032043,
        -0.9999978542327881,
        -0.9999746680259705
      ],
      "type": "VEC3"
    },
    {
      "bufferView": 1,
      "componentType": 5126,
      "count": 59772,
      "max": [
        0.9999906420707703,
        0.9999514222145081
      ],
      "min": [
        2.0487555957515724e-05,
        0.010835707187652588
      ],
      "type": "VEC2"
    },
    {
      "bufferView": 1,
      "byteOffset": 478176,
      "componentType": 5126,
      "count": 59772,
      "max": [
        0.9999906420707703,
        0.9999514222145081
      ],
      "min": [
        2.0487555957515724e-05,
        0.010835707187652588
      ],
      "type": "VEC2"
    },
    {
      "bufferView": 1,
      "byteOffset": 956352,
      "componentType": 5126,
      "count": 59772,
      "max": [
        0.9999906420707703,
        0.9999514222145081
      ],
      "min": [
        2.0487555957515724e-05,
        0.010835707187652588
      ],
      "type": "VEC2"
    },
    {
      "bufferView": 1,
      "byteOffset": 1434528,
      "componentType": 5126,
      "count": 59772,
      "max": [
        0.9999906420707703,
        0.9999514222145081
      ],
      "min": [
        2.0487555957515724e-05,
        0.010835707187652588
      ],
      "type": "VEC2"
    },
    {
      "bufferView": 1,
      "byteOffset": 1912704,
      "componentType": 5126,
      "count": 59772,
      "max": [
        0.9999906420707703,
        0.9999514222145081
      ],
      "min": [
        2.0487555957515724e-05,
        0.010835707187652588
      ],
      "type": "VEC2"
    },
    {
      "bufferView": 0,
      "componentType": 5125,
      "count": 306696,
      "type": "SCALAR"
    }
  ],
  "asset": {
    "extras": {
      "author": "Alphawolff (https://sketchfab.com/Alphawolff)",
      "license": "CC-BY-NC-SA-4.0 (http://creativecommons.org/licenses/by-nc-sa/4.0/)",
      "source": "https://sketchfab.com/3d-models/hand-wash-station-d4a93239be1f40ee94f1eaee4ac717d3",
      "title": "Hand wash station"
    },
    "generator": "Sketchfab-15.53.0",
    "version": "2.0"
  },
  "bufferViews": [
    {
      "buffer": 0,
      "byteLength": 1226784,
      "name": "floatBufferViews",
      "target": 34963
    },
    {
      "buffer": 0,
      "byteLength": 2390880,
      "byteOffset": 1226784,
      "byteStride": 8,
      "name": "floatBufferViews",
      "target": 34962
    },
    {
      "buffer": 0,
      "byteLength": 1434528,
      "byteOffset": 3617664,
      "byteStride": 12,
      "name": "floatBufferViews",
      "target": 34962
    }
  ],
  "buffers": [
    {
      "byteLength": 5052192,
      "uri": "scene.bin"
    }
  ],
  "extensionsUsed": [
    "KHR_materials_unlit"
  ],
  "images": [
    {
      "uri": "textures/material_0_baseColor.jpeg"
    }
  ],
  "materials": [
    {
      "extensions": {
        "KHR_materials_unlit": {}
      },
      "name": "material_0",
      "pbrMetallicRoughness": {
        "baseColorTexture": {
          "index": 0
        },
        "metallicFactor": 0.0
      }
    }
  ],
  "meshes": [
    {
      "name": "Object_0",
      "primitives": [
        {
          "attributes": {
            "NORMAL": 1,
            "POSITION": 0,
            "TEXCOORD_0": 2,
            "TEXCOORD_1": 3,
            "TEXCOORD_2": 4,
            "TEXCOORD_3": 5,
            "TEXCOORD_4": 6
          },
          "indices": 7,
          "material": 0,
          "mode": 4
        }
      ]
    }
  ],
  "nodes": [
    {
      "children": [
        1
      ],
      "matrix": [
        1.0,
        0.0,
        0.0,
        0.0,
        0.0,
        2.220446049250313e-16,
        -1.0,
        0.0,
        0.0,
        1.0,
        2.220446049250313e-16,
        0.0,
        0.0,
        0.0,
        0.0,
        1.0
      ],
      "name": "Sketchfab_model"
    },
    {
      "children": [
        2
      ],
      "name": "root"
    },
    {
      "children": [
        3
      ],
      "matrix": [
        1.0,
        0.0,
        0.0,
        0.0,
        0.0,
        2.220446049250313e-16,
        1.0,
        0.0,
        0.0,
        -1.0,
        2.220446049250313e-16,
        0.0,
        0.0,
        0.0,
        0.0,
        1.0
      ],
      "name": "GLTF_SceneRootNode"
    },
    {
      "children": [
        4
      ],
      "name": "_0"
    },
    {
      "mesh": 0,
      "name": "Object_4"
    }
  ],
  "samplers": [
    {
      "magFilter": 9729,
      "minFilter": 9987,
      "wrapS": 10497,
      "wrapT": 10497
    }
  ],
  "scene": 0,
  "scenes": [
    {
      "name": "Sketchfab_Scene",
      "nodes": [
        0
      ]
    }
  ],
  "textures": [
    {
      "sampler": 0,
      "source": 0
    }
  ]
}
