{
  "accessors": [
    {
      "bufferView": 2,
      "componentType": 5126,
      "count": 2858,
      "max": [
        0.3691039979457855,
        1.8647300004959106,
        3.4748690128326416
      ],
      "min": [
        -1.0501919984817505,
        -0.6656010150909424,
        0.0013800000306218863
      ],
      "type": "VEC3"
    },
    {
      "bufferView": 2,
      "byteOffset": 34296,
      "componentType": 5126,
      "count": 2858,
      "max": [
        1.0,
        0.9999794960021973,
        1.0
      ],
      "min": [
        -1.0,
        -0.9999788999557495,
        -1.0
      ],
      "type": "VEC3"
    },
    {
      "bufferView": 3,
      "componentType": 5126,
      "count": 2858,
      "max": [
        0.9999796152114868,
        1.0,
        1.0,
        1.0
      ],
      "min": [
        -0.9999788999557495,
        -1.0,
        -0.9244042038917542,
        1.0
      ],
      "type": "VEC4"
    },
    {
      "bufferView": 1,
      "componentType": 5126,
      "count": 2858,
      "max": [
        0.9708520174026489,
        0.9820250272750854
      ],
      "min": [
        0.01797500066459179,
        0.01797500066459179
      ],
      "type": "VEC2"
    },
    {
      "bufferView": 0,
      "componentType": 5125,
      "count": 4542,
      "type": "SCALAR"
    }
  ],
  "asset": {
    "extras": {
      "author": "supervacanea (https://sketchfab.com/supervacanea)",
      "license": "CC-BY-4.0 (http://creativecommons.org/licenses/by/4.0/)",
      "source": "https://sketchfab.com/3d-models/medical-screen-61896277b8994127b239639e6f3e159d",
      "title": "medical screen"
    },
    "generator": "Sketchfab-12.66.0",
    "version": "2.0"
  },
  "bufferViews": [
    {
      "buffer": 0,
      "byteLength": 18168,
      "name": "floatBufferViews",
      "target": 34963
    },
    {
      "buffer": 0,
      "byteLength": 22864,
      "byteOffset": 18168,
      "byteStride": 8,
      "name": "floatBufferViews",
      "target": 34962
    },
    {
      "buffer": 0,
      "byteLength": 68592,
      "byteOffset": 41032,
      "byteStride": 12,
      "name": "floatBufferViews",
      "target": 34962
    },
    {
      "buffer": 0,
      "byteLength": 45728,
      "byteOffset": 109624,
      "byteStride": 16,
      "name": "floatBufferViews",
      "target": 34962
    }
  ],
  "buffers": [
    {
      "byteLength": 155352,
      "uri": "scene.bin"
    }
  ],
  "images": [
    {
      "uri": "textures/None.003_baseColor.png"
    },
    {
      "uri": "textures/None.003_metallicRoughness.png"
    },
    {
      "uri": "textures/None.003_normal.png"
    }
  ],
  "materials": [
    {
      "doubleSided": true,
      "name": "None.003",
      "normalTexture": {
        "index": 2
      },
      "pbrMetallicRoughness": {
        "baseColorTexture": {
          "index": 0
        },
        "metallicRoughnessTexture": {
          "index": 1
        },
        "roughnessFactor": 0.4942040749320541
      }
    }
  ],
  "meshes": [
    {
      "name": "Object_0",
      "primitives": [
        {
          "attributes": {
            "NORMAL": 1,
            "POSITION": 0,
            "TANGENT": 2,
            "TEXCOORD_0": 3
          },
          "indices": 4,
          "material": 0,
          "mode": 4
        }
      ]
    }
  ],
  "nodes": [
    {
      "children": [
        1
      ],
      "matrix": [
        1.0,
        0.0,
        0.0,
        0.0,
        0.0,
        2.220446049250313e-16,
        -1.0,
        0.0,
        0.0,
        1.0,
        2.220446049250313e-16,
        0.0,
        0.0,
        0.0,
        0.0,
        1.0
      ],
      "name": "Sketchfab_model"
    },
    {
      "children": [
        2
      ],
      "name": "paravan_sf.obj.cleaner.materialmerger.gles"
    },
    {
      "mesh": 0,
      "name": "Object_2"
    }
  ],
  "samplers": [
    {
      "magFilter": 9729,
      "minFilter": 9987,
      "wrapS": 10497,
      "wrapT": 10497
    }
  ],
  "scene": 0,
  "scenes": [
    {
      "name": "Sketchfab_Scene",
      "nodes": [
        0
      ]
    }
  ],
  "textures": [
    {
      "sampler": 0,
      "source": 0
    },
    {
      "sampler": 0,
      "source": 1
    },
    {
      "sampler": 0,
      "source": 2
    }
  ]
}
